<?xml version="1.0" encoding="UTF-8"?>
<svg width="378px" height="57px" viewBox="0 0 378 57" version="1.1" xmlns="http://www.w3.org/2000/svg" xmlns:xlink="http://www.w3.org/1999/xlink">
    <title>Group</title>
    <g id="Dana" stroke="none" stroke-width="1" fill="none" fill-rule="evenodd">
        <g id="Cards" transform="translate(-12, -102)" stroke="#A41C1C">
            <g id="Group" transform="translate(12.2542, 103.3558)">
                <path d="M188.124654,16.797776 C188.534225,16.7110942 188.957405,16.7110942 189.366977,16.797776 L340.148333,48.7091741 C340.958808,48.8807032 341.623029,49.3645034 342.041749,50.00804 C342.46047,50.6515766 342.633689,51.4548496 342.46216,52.2653244 C342.315415,52.9586965 341.936033,53.5534061 341.416155,53.9747726 C340.896277,54.3961392 340.235902,54.6441628 339.527172,54.6441628 L37.9644592,54.6441628 C37.1360321,54.6441628 36.3860321,54.3083763 35.8431388,53.7654831 C35.3002456,53.2225899 34.9644592,52.4725899 34.9644592,51.6441628 C34.9644592,50.9354321 35.2124827,50.2750577 35.6338493,49.7551795 C36.0552159,49.2353014 36.6499255,48.8559196 37.3432976,48.7091741 Z" id="Triangle" stroke-width="2"></path>
                <path d="M189.001294,16.6441628 C178.028611,-0.704201355 191.08376,-4.50973659 196.745815,4.01707835" id="Path" stroke-width="2"></path>
            </g>
        </g>
    </g>
</svg>